<mxfile host="Electron" modified="2024-06-04T00:38:38.119Z" agent="Mozilla/5.0 (Windows NT 10.0; Win64; x64) AppleWebKit/537.36 (KHTML, like Gecko) draw.io/24.4.13 Chrome/124.0.6367.207 Electron/30.0.6 Safari/537.36" etag="g4HX_tLSE4C_Z6ocFx_I" version="24.4.13" type="device">
  <diagram name="Страница — 1" id="mBS55dO1TWWZIY-wzRTi">
    <mxGraphModel dx="627" dy="445" grid="1" gridSize="10" guides="1" tooltips="1" connect="1" arrows="1" fold="1" page="1" pageScale="1" pageWidth="827" pageHeight="1169" math="0" shadow="0">
      <root>
        <mxCell id="0" />
        <mxCell id="1" parent="0" />
        <mxCell id="eMPqrrTwyMtxjT3gngAf-1" value="Начало" style="rounded=1;whiteSpace=wrap;html=1;arcSize=50;" vertex="1" parent="1">
          <mxGeometry x="354" y="20" width="120" height="20" as="geometry" />
        </mxCell>
        <mxCell id="eMPqrrTwyMtxjT3gngAf-2" value="" style="endArrow=none;dashed=1;html=1;rounded=0;exitX=0;exitY=0.5;exitDx=0;exitDy=0;entryX=1;entryY=0.5;entryDx=0;entryDy=0;exitPerimeter=0;" edge="1" source="eMPqrrTwyMtxjT3gngAf-3" target="eMPqrrTwyMtxjT3gngAf-1" parent="1">
          <mxGeometry width="50" height="50" relative="1" as="geometry">
            <mxPoint x="550" y="35" as="sourcePoint" />
            <mxPoint x="530" y="35" as="targetPoint" />
          </mxGeometry>
        </mxCell>
        <mxCell id="eMPqrrTwyMtxjT3gngAf-3" value="    Входные данные:&#xa;     int[] mas, DataGridView Table" style="strokeWidth=2;shape=mxgraph.flowchart.annotation_1;align=left;pointerEvents=1;recursiveResize=1;autosize=0;verticalAlign=middle;horizontal=1;" vertex="1" parent="1">
          <mxGeometry x="500" y="2.5" width="50" height="55" as="geometry" />
        </mxCell>
        <mxCell id="eMPqrrTwyMtxjT3gngAf-4" value="" style="endArrow=none;html=1;rounded=0;entryX=0.5;entryY=0;entryDx=0;entryDy=0;exitX=0.5;exitY=1;exitDx=0;exitDy=0;" edge="1" target="eMPqrrTwyMtxjT3gngAf-5" parent="1" source="eMPqrrTwyMtxjT3gngAf-1">
          <mxGeometry width="50" height="50" relative="1" as="geometry">
            <mxPoint x="419.9999999999999" y="100" as="sourcePoint" />
            <mxPoint x="335.9999999999999" y="100" as="targetPoint" />
          </mxGeometry>
        </mxCell>
        <mxCell id="eMPqrrTwyMtxjT3gngAf-5" value="Table.RowCount = 2;" style="rounded=0;whiteSpace=wrap;html=1;" vertex="1" parent="1">
          <mxGeometry x="354" y="50" width="120" height="20" as="geometry" />
        </mxCell>
        <mxCell id="eMPqrrTwyMtxjT3gngAf-12" value="" style="endArrow=none;html=1;rounded=0;entryX=0.5;entryY=0;entryDx=0;entryDy=0;exitX=0.5;exitY=1;exitDx=0;exitDy=0;" edge="1" target="eMPqrrTwyMtxjT3gngAf-13" parent="1" source="eMPqrrTwyMtxjT3gngAf-5">
          <mxGeometry width="50" height="50" relative="1" as="geometry">
            <mxPoint x="449.9999999999999" y="190" as="sourcePoint" />
            <mxPoint x="365.9999999999999" y="190" as="targetPoint" />
          </mxGeometry>
        </mxCell>
        <mxCell id="eMPqrrTwyMtxjT3gngAf-13" value="Table.ColumnCount = mas.Length" style="rounded=0;whiteSpace=wrap;html=1;" vertex="1" parent="1">
          <mxGeometry x="353.9999999999999" y="80" width="120" height="30" as="geometry" />
        </mxCell>
        <mxCell id="eMPqrrTwyMtxjT3gngAf-15" value="" style="endArrow=none;html=1;rounded=0;exitX=0.5;exitY=0;exitDx=0;exitDy=0;exitPerimeter=0;entryX=0.5;entryY=1;entryDx=0;entryDy=0;" edge="1" source="eMPqrrTwyMtxjT3gngAf-16" parent="1" target="eMPqrrTwyMtxjT3gngAf-13">
          <mxGeometry width="50" height="50" relative="1" as="geometry">
            <mxPoint x="569" y="380" as="sourcePoint" />
            <mxPoint x="560" y="220" as="targetPoint" />
          </mxGeometry>
        </mxCell>
        <mxCell id="eMPqrrTwyMtxjT3gngAf-16" value="i = 0; mas.Length" style="strokeWidth=2;html=1;shape=mxgraph.flowchart.loop_limit;whiteSpace=wrap;" vertex="1" parent="1">
          <mxGeometry x="361" y="120" width="106" height="20" as="geometry" />
        </mxCell>
        <mxCell id="eMPqrrTwyMtxjT3gngAf-17" value="i++" style="strokeWidth=2;html=1;shape=mxgraph.flowchart.loop_limit;whiteSpace=wrap;direction=west;" vertex="1" parent="1">
          <mxGeometry x="364" y="180" width="100" height="20" as="geometry" />
        </mxCell>
        <mxCell id="eMPqrrTwyMtxjT3gngAf-18" value="Table.Rows[0].Cells[i].Value = &quot;[&quot; + i.ToString() + &quot;]&quot;" style="rounded=0;whiteSpace=wrap;html=1;" vertex="1" parent="1">
          <mxGeometry x="274.5" y="150" width="279" height="20" as="geometry" />
        </mxCell>
        <mxCell id="eMPqrrTwyMtxjT3gngAf-19" value="" style="endArrow=none;html=1;rounded=0;entryX=0.5;entryY=1;entryDx=0;entryDy=0;entryPerimeter=0;exitX=0.5;exitY=0;exitDx=0;exitDy=0;" edge="1" source="eMPqrrTwyMtxjT3gngAf-18" target="eMPqrrTwyMtxjT3gngAf-16" parent="1">
          <mxGeometry width="50" height="50" relative="1" as="geometry">
            <mxPoint x="589" y="510" as="sourcePoint" />
            <mxPoint x="639" y="460" as="targetPoint" />
          </mxGeometry>
        </mxCell>
        <mxCell id="eMPqrrTwyMtxjT3gngAf-20" value="" style="endArrow=none;html=1;rounded=0;entryX=0.5;entryY=1;entryDx=0;entryDy=0;exitX=0.5;exitY=1;exitDx=0;exitDy=0;exitPerimeter=0;" edge="1" source="eMPqrrTwyMtxjT3gngAf-17" target="eMPqrrTwyMtxjT3gngAf-18" parent="1">
          <mxGeometry width="50" height="50" relative="1" as="geometry">
            <mxPoint x="589" y="510" as="sourcePoint" />
            <mxPoint x="639" y="460" as="targetPoint" />
          </mxGeometry>
        </mxCell>
        <mxCell id="eMPqrrTwyMtxjT3gngAf-22" value="" style="endArrow=none;html=1;rounded=0;exitX=0.5;exitY=0;exitDx=0;exitDy=0;exitPerimeter=0;entryX=0.5;entryY=0;entryDx=0;entryDy=0;entryPerimeter=0;" edge="1" source="eMPqrrTwyMtxjT3gngAf-23" parent="1" target="eMPqrrTwyMtxjT3gngAf-17">
          <mxGeometry width="50" height="50" relative="1" as="geometry">
            <mxPoint x="379" y="530" as="sourcePoint" />
            <mxPoint x="370" y="370" as="targetPoint" />
          </mxGeometry>
        </mxCell>
        <mxCell id="eMPqrrTwyMtxjT3gngAf-23" value="i = 0; mas.Length" style="strokeWidth=2;html=1;shape=mxgraph.flowchart.loop_limit;whiteSpace=wrap;" vertex="1" parent="1">
          <mxGeometry x="361" y="210" width="106" height="20" as="geometry" />
        </mxCell>
        <mxCell id="eMPqrrTwyMtxjT3gngAf-24" value="i++" style="strokeWidth=2;html=1;shape=mxgraph.flowchart.loop_limit;whiteSpace=wrap;direction=west;" vertex="1" parent="1">
          <mxGeometry x="364" y="270" width="100" height="20" as="geometry" />
        </mxCell>
        <mxCell id="eMPqrrTwyMtxjT3gngAf-25" value="Table.Rows[1].Cells[i].Value = mas[i]" style="rounded=0;whiteSpace=wrap;html=1;" vertex="1" parent="1">
          <mxGeometry x="301" y="240" width="226" height="20" as="geometry" />
        </mxCell>
        <mxCell id="eMPqrrTwyMtxjT3gngAf-26" value="" style="endArrow=none;html=1;rounded=0;entryX=0.5;entryY=1;entryDx=0;entryDy=0;entryPerimeter=0;exitX=0.5;exitY=0;exitDx=0;exitDy=0;" edge="1" source="eMPqrrTwyMtxjT3gngAf-25" target="eMPqrrTwyMtxjT3gngAf-23" parent="1">
          <mxGeometry width="50" height="50" relative="1" as="geometry">
            <mxPoint x="399" y="660" as="sourcePoint" />
            <mxPoint x="449" y="610" as="targetPoint" />
          </mxGeometry>
        </mxCell>
        <mxCell id="eMPqrrTwyMtxjT3gngAf-27" value="" style="endArrow=none;html=1;rounded=0;entryX=0.5;entryY=1;entryDx=0;entryDy=0;exitX=0.5;exitY=1;exitDx=0;exitDy=0;exitPerimeter=0;" edge="1" source="eMPqrrTwyMtxjT3gngAf-24" target="eMPqrrTwyMtxjT3gngAf-25" parent="1">
          <mxGeometry width="50" height="50" relative="1" as="geometry">
            <mxPoint x="399" y="660" as="sourcePoint" />
            <mxPoint x="449" y="610" as="targetPoint" />
          </mxGeometry>
        </mxCell>
        <mxCell id="eMPqrrTwyMtxjT3gngAf-28" value="" style="endArrow=none;html=1;rounded=0;entryX=0.5;entryY=0;entryDx=0;entryDy=0;entryPerimeter=0;exitX=0.5;exitY=0;exitDx=0;exitDy=0;" edge="1" target="eMPqrrTwyMtxjT3gngAf-24" parent="1" source="eMPqrrTwyMtxjT3gngAf-30">
          <mxGeometry width="50" height="50" relative="1" as="geometry">
            <mxPoint x="414" y="310" as="sourcePoint" />
            <mxPoint x="400" y="500" as="targetPoint" />
          </mxGeometry>
        </mxCell>
        <mxCell id="eMPqrrTwyMtxjT3gngAf-30" value="Table.Rows[0].Cells[0].Selected = false" style="rounded=0;whiteSpace=wrap;html=1;" vertex="1" parent="1">
          <mxGeometry x="304" y="300" width="220" height="20" as="geometry" />
        </mxCell>
        <mxCell id="eMPqrrTwyMtxjT3gngAf-32" value="Конец" style="rounded=1;whiteSpace=wrap;html=1;arcSize=50;" vertex="1" parent="1">
          <mxGeometry x="354" y="330" width="120" height="20" as="geometry" />
        </mxCell>
        <mxCell id="eMPqrrTwyMtxjT3gngAf-33" value="" style="endArrow=none;html=1;rounded=0;entryX=0.5;entryY=0;entryDx=0;entryDy=0;exitX=0.5;exitY=1;exitDx=0;exitDy=0;" edge="1" target="eMPqrrTwyMtxjT3gngAf-32" parent="1" source="eMPqrrTwyMtxjT3gngAf-30">
          <mxGeometry width="50" height="50" relative="1" as="geometry">
            <mxPoint x="480" y="410" as="sourcePoint" />
            <mxPoint x="510" y="450" as="targetPoint" />
          </mxGeometry>
        </mxCell>
      </root>
    </mxGraphModel>
  </diagram>
</mxfile>
